<?xml version="1.0" encoding="UTF-8" standalone="no" ?>
<!DOCTYPE svg PUBLIC "-//W3C//DTD SVG 1.1//EN" "http://www.w3.org/Graphics/SVG/1.1/DTD/svg11.dtd">
<svg xmlns="http://www.w3.org/2000/svg" xmlns:xlink="http://www.w3.org/1999/xlink" version="1.1" width="1280" height="1024" viewBox="0 0 1280 1024" xml:space="preserve">
<desc>Created with Fabric.js 4.4.0</desc>
<defs>
</defs>
<g transform="matrix(1 0 0 1 640 512)" id="background-logo"  >
<rect style="stroke: none; stroke-width: 0; stroke-dasharray: none; stroke-linecap: butt; stroke-dashoffset: 0; stroke-linejoin: miter; stroke-miterlimit: 4; fill: rgb(255,255,255); fill-rule: nonzero; opacity: 1;"  paint-order="stroke"  x="-640" y="-512" rx="0" ry="0" width="1280" height="1024" />
</g>
<g transform="matrix(1.9211538461538462 0 0 1.9211538461538462 640.5810541826079 399.8402269088944)" id="logo-logo"  >
<g style=""  paint-order="stroke"   >
		<g transform="matrix(0.3124453180869496 0 0 0.3124453180869496 0 -45.445171515746836)"  >
<g style=""  paint-order="stroke"   >
		<g transform="matrix(1 0 0 1 0 0.05000000000001137)"  >
<linearGradient id="SVGID_176_469015" gradientUnits="userSpaceOnUse" gradientTransform="matrix(1 0 0 1 248.20000000000005 248.5000000000001)"  x1="0" y1="0" x2="0" y2="412">
<stop offset="0%" style="stop-color:rgb(180,236,81);stop-opacity: 1"/>
<stop offset="100%" style="stop-color:rgb(66,147,33);stop-opacity: 1"/>
</linearGradient>
<path style="stroke: none; stroke-width: 1; stroke-dasharray: none; stroke-linecap: butt; stroke-dashoffset: 0; stroke-linejoin: miter; stroke-miterlimit: 4; fill: url(#SVGID_176_469015); fill-rule: nonzero; opacity: 1;"  paint-order="stroke"  transform=" translate(-600, -454.55000000000007)" d="M 951.8 342.4 C 951.8 342.4 951 349.59999999999997 949.5999999999999 362.2 C 775.9 361.6 539.8 534.7 486 660.6 C 437.3 590.9 346.6 597.8000000000001 286.6 612.2 C 280 576.7 273.90000000000003 538.3000000000001 268.6 502.00000000000006 C 263 463.50000000000006 258.3 427.30000000000007 254.8 399.1 C 250.60000000000002 364.8 248.20000000000002 342.40000000000003 248.20000000000002 342.40000000000003 C 248.8 348.6 316.1 344.6 322.70000000000005 344.00000000000006 C 348.1 341.90000000000003 373.30000000000007 337.50000000000006 398.20000000000005 331.6000000000001 C 442.50000000000006 321.1000000000001 496.1 307.9000000000001 533.7 278.7000000000001 C 547.3000000000001 268.2000000000001 557.7 257.7000000000001 574.2 252.9000000000001 C 575.5 252.50000000000009 595 248.8000000000001 599.7 248.50000000000009 C 599.8000000000001 248.50000000000009 599.9000000000001 248.50000000000009 600.1 248.50000000000009 C 600.2 248.50000000000009 600.4 248.50000000000009 600.4 248.50000000000009 C 605 248.70000000000007 624.5 252.50000000000009 625.9 252.9000000000001 C 642.3 257.6000000000001 652.6999999999999 268.1000000000001 666.4 278.7000000000001 C 673.3 284.0000000000001 680.8 288.9000000000001 688.6 293.2000000000001 C 723.4 312.6000000000001 765.7 323.0000000000001 801.9 331.5000000000001 C 826.8 337.4000000000001 852 341.8000000000001 877.4 343.9000000000001 C 880.8 344.2000000000001 900.5 345.4000000000001 918.8 345.6000000000001 C 935.7 346 951.5 345.4 951.8 342.4 z" stroke-linecap="round" />
</g>
		<g transform="matrix(1 0 0 1 -16.549999999999955 -59.00000000000006)"  >
<path style="stroke: none; stroke-width: 1; stroke-dasharray: none; stroke-linecap: butt; stroke-dashoffset: 0; stroke-linejoin: miter; stroke-miterlimit: 4; fill: rgb(36,61,140); fill-rule: nonzero; opacity: 1;"  paint-order="stroke"  transform=" translate(-583.45, -395.5)" d="M 918.7 345.7 C 614.5 381.59999999999997 476.80000000000007 538.7 474.20000000000005 542.5 C 400 485.4 308.6 494.3 268.6 502 C 256.20000000000005 416.7 248.20000000000002 342.4 248.20000000000002 342.4 C 248.8 348.59999999999997 316.1 344.59999999999997 322.70000000000005 344 C 348.1 341.9 373.30000000000007 337.5 398.20000000000005 331.6 C 442.50000000000006 321.1 496.1 307.90000000000003 533.7 278.70000000000005 C 547.3000000000001 268.20000000000005 557.7 257.70000000000005 574.2 252.90000000000003 C 575.5 252.50000000000003 595 248.80000000000004 599.7 248.50000000000003 C 599.8000000000001 248.50000000000003 599.9000000000001 248.50000000000003 600.1 248.50000000000003 C 600.2 248.50000000000003 600.4 248.50000000000003 600.4 248.50000000000003 C 605 248.70000000000002 624.5 252.50000000000003 625.9 252.90000000000003 C 642.3 257.6 652.6999999999999 268.1 666.4 278.70000000000005 C 704 307.90000000000003 757.6 321.1 801.9 331.6 C 826.8 337.5 852 341.90000000000003 877.4 344 C 880.7 344.3 900.4 345.5 918.7 345.7 z" stroke-linecap="round" />
</g>
		<g transform="matrix(1 0 0 1 -131.64999999999998 -109.60000000000002)"  >
<path style="stroke: none; stroke-width: 1; stroke-dasharray: none; stroke-linecap: butt; stroke-dashoffset: 0; stroke-linejoin: miter; stroke-miterlimit: 4; fill: rgb(46,81,170); fill-rule: nonzero; opacity: 1;"  paint-order="stroke"  transform=" translate(-468.35, -344.90000000000003)" d="M 688.5 293.2 C 527.5 352.59999999999997 452.3 438.6 450.4 441.4 C 381.79999999999995 388.59999999999997 298.7 392.09999999999997 254.79999999999998 399 C 250.6 364.7 248.2 342.3 248.2 342.3 C 248.79999999999998 348.5 316.1 344.5 322.7 343.90000000000003 C 348.09999999999997 341.8 373.3 337.40000000000003 398.2 331.50000000000006 C 442.5 321.00000000000006 496.1 307.80000000000007 533.7 278.6000000000001 C 547.3000000000001 268.1000000000001 557.7 257.6000000000001 574.2 252.80000000000007 C 575.5 252.40000000000006 595 248.70000000000007 599.7 248.40000000000006 C 599.8000000000001 248.40000000000006 599.9000000000001 248.40000000000006 600.1 248.40000000000006 C 600.2 248.40000000000006 600.4 248.40000000000006 600.4 248.40000000000006 C 605 248.60000000000005 624.5 252.40000000000006 625.9 252.80000000000007 C 642.3 257.50000000000006 652.6999999999999 268.00000000000006 666.4 278.6000000000001 C 673.2 284 680.6 288.9 688.5 293.2 z" stroke-linecap="round" />
</g>
</g>
</g>
		<g transform="matrix(0.3124453180869496 0 0 0.3124453180869496 7.326842709138987 25.08935904238203)"  >
<g style=""  paint-order="stroke"   >
		<g transform="matrix(1 0 0 1 0 -0.07167657057607357)"  >
<linearGradient id="SVGID_177_469016" gradientUnits="userSpaceOnUse" gradientTransform="matrix(1 0 0 1 0 0)"  x1="856.2357" y1="643.7233" x2="431.9712" y2="818.7324">
<stop offset="0%" style="stop-color:rgb(36,61,140);stop-opacity: 1"/>
<stop offset="99.26%" style="stop-color:rgb(0,23,79);stop-opacity: 1"/>
</linearGradient>
<path style="stroke: none; stroke-width: 1; stroke-dasharray: none; stroke-linecap: butt; stroke-dashoffset: 0; stroke-linejoin: miter; stroke-miterlimit: 4; fill: url(#SVGID_177_469016); fill-rule: nonzero; opacity: 1;"  paint-order="stroke"  transform=" translate(-623.45, -680.1783234294239)" d="M 943.9 409 C 941.6 427.7 938.6999999999999 449.4 935.5 472.6 C 931.3 503.3 926.4 536.6 920.9 569.1 C 920.6999999999999 570.4 920.5 571.6 920.3 572.6 C 917.8 587.7 915.0999999999999 602.6 912.4 617 C 901.5 674.5 889.3 723.8 876.9 743.6 C 838.9 804.3000000000001 649.4 954.5 599.9 951.3 C 595.6 951.5999999999999 590.1999999999999 950.6999999999999 583.9 948.8 C 582.3 948.3 580.6999999999999 947.8 579 947.1999999999999 C 510.9 922.8 356.9 797.7 323 743.7 C 316.2 732.8000000000001 309.4 713.1 303 688.1 C 303.9 687.9 304.8 687.7 305.8 687.5 C 413.70000000000005 663.7 532.9 825.6 536.4 830.3 C 536.5 830.4 536.5 830.4 536.5 830.4 C 538.9 826.1999999999999 541.3 822 543.7 817.8 C 604.2 713.1999999999999 659 634.8 707.9000000000001 576.1999999999999 C 760.1000000000001 513.6999999999999 805.4000000000001 473.69999999999993 843.7 448.5999999999999 C 885.9 420.7 919.4 411 943.9 409 L 943.9 409 z" stroke-linecap="round" />
</g>
		<g transform="matrix(1 0 0 1 120.29999999999995 -1.2999999999999545)"  >
<linearGradient id="SVGID_178_469017" gradientUnits="userSpaceOnUse" gradientTransform="matrix(1 0 0 1 0 0)"  x1="673.4716" y1="788.6867" x2="837.874" y2="552.6896">
<stop offset="0%" style="stop-color:rgb(36,61,140);stop-opacity: 1"/>
<stop offset="99.26%" style="stop-color:rgb(46,81,170);stop-opacity: 1"/>
</linearGradient>
<path style="stroke: none; stroke-width: 1; stroke-dasharray: none; stroke-linecap: butt; stroke-dashoffset: 0; stroke-linejoin: miter; stroke-miterlimit: 4; fill: url(#SVGID_178_469017); fill-rule: nonzero; opacity: 1;"  paint-order="stroke"  transform=" translate(-743.75, -678.95)" d="M 943.9 409 C 941.6 427.7 938.6999999999999 449.4 935.5 472.6 C 931.3 503.3 926.4 536.6 920.9 569.1 C 920.6999999999999 570.4 920.5 571.6 920.3 572.6 C 917.8 587.7 915.0999999999999 602.6 912.4 617 C 722.4 753.4 584 948.9 584 948.9 L 543.6 817.7 C 604.1 713.1 658.9 634.7 707.8 576.1 C 760 513.6 805.3 473.6 843.5999999999999 448.5 C 885.9 420.7 919.4 411 943.9 409 L 943.9 409 z" stroke-linecap="round" />
</g>
		<g transform="matrix(1 0 0 1 1.349999999999909 0)"  >
<linearGradient id="SVGID_179_469018" gradientUnits="userSpaceOnUse" gradientTransform="matrix(1 0 0 1 305.7 409)"  x1="0" y1="0" x2="0" y2="543">
<stop offset="0%" style="stop-color:rgb(180,236,81);stop-opacity: 1"/>
<stop offset="100%" style="stop-color:rgb(66,147,33);stop-opacity: 1"/>
</linearGradient>
<path style="stroke: none; stroke-width: 1; stroke-dasharray: none; stroke-linecap: butt; stroke-dashoffset: 0; stroke-linejoin: miter; stroke-miterlimit: 4; fill: url(#SVGID_179_469018); fill-rule: nonzero; opacity: 1;"  paint-order="stroke"  transform=" translate(-624.8, -680.25)" d="M 943.9 409 C 943.9 409 635.0999999999999 699.4 584 948.9 C 583.8 949.8 583.6 950.6 583.5 951.5 C 582 950.1 580.6 948.7 579.2 947.3 C 480.80000000000007 850.4 440.40000000000003 725.1999999999999 305.70000000000005 687.4 C 413.6 663.6 532.8000000000001 825.5 536.3000000000001 830.2 C 536.4000000000001 830.3000000000001 536.4000000000001 830.3000000000001 536.4000000000001 830.3000000000001 C 664.8 605.4 768.1 498 843.6 448.4 C 885.9 420.7 919.4 411 943.9 409 L 943.9 409 z" stroke-linecap="round" />
</g>
</g>
</g>
</g>
</g>
<g transform="matrix(1.9211538461538462 0 0 1.9211538461538462 644.5120096562135 684.889342905583)" id="text-logo"  >
<g style=""  paint-order="stroke"   >
		<g transform="matrix(1 0 0 1 0 0)" id="text-logo-path-0"  >
<path style="stroke: rgb(255,255,255); stroke-width: 0; stroke-dasharray: none; stroke-linecap: butt; stroke-dashoffset: 0; stroke-linejoin: miter; stroke-miterlimit: 4; fill: rgb(19,43,111); fill-rule: nonzero; opacity: 1;"  paint-order="stroke"  transform=" translate(-156.065, 15.25)" d="M 23.42 -17.69 L 35.56 -17.69 C 35.26 -8.17 33.31 -6.71 23.42 -6.71 C 11.71 -6.71 9.33 -9.15 9.33 -21.35 C 9.33 -33.61 11.77 -35.99 23.42 -35.99 C 29.28 -35.99 32.21 -35.26 34.34 -33.37 L 39.22 -38.73 C 35.62 -42.09 30.38 -43.31 23.42 -43.31 C 8.3 -43.31 2.01 -37.33 2.01 -21.35 C 2.01 -5.67 8.11 0.61 23.42 0.61 C 40.2 0.61 43.49 -6.95 42.88 -25.01 L 23.42 -25.01 Z M 64.84 0.61 C 75.7 0.61 80.34 -4.09 80.34 -15.25 C 80.34 -26.66 75.58 -31.11 64.84 -31.11 C 54.11 -31.11 49.35 -26.66 49.35 -15.25 C 49.35 -4.09 53.98 0.61 64.84 0.61 Z M 56.67 -15.25 C 56.67 -22.94 57.58 -23.79 64.84 -23.79 C 72.1 -23.79 73.02 -22.94 73.02 -15.25 C 73.02 -7.69 72.1 -6.71 64.84 -6.71 C 57.58 -6.71 56.67 -7.69 56.67 -15.25 Z M 126.21 -6.59 L 120.11 -10.61 C 118.16 -7.69 115.23 -6.71 108.15 -6.71 C 96.44 -6.71 94.06 -9.15 94.06 -21.35 C 94.06 -33.61 96.5 -35.99 108.15 -35.99 C 114.01 -35.99 116.94 -35.26 119.07 -33.37 L 123.95 -38.73 C 120.35 -42.09 115.11 -43.31 108.15 -43.31 C 93.03 -43.31 86.74 -37.33 86.74 -21.35 C 86.74 -5.67 92.84 0.61 108.15 0.61 C 116.63 0.61 122.73 -1.22 126.21 -6.59 Z M 147.5 0.61 C 158.36 0.61 162.99 -4.09 162.99 -15.25 C 162.99 -26.66 158.23 -31.11 147.5 -31.11 C 136.76 -31.11 132 -26.66 132 -15.25 C 132 -4.09 136.64 0.61 147.5 0.61 Z M 139.32 -15.25 C 139.32 -22.94 140.24 -23.79 147.5 -23.79 C 154.76 -23.79 155.67 -22.94 155.67 -15.25 C 155.67 -7.69 154.76 -6.71 147.5 -6.71 C 140.24 -6.71 139.32 -7.69 139.32 -15.25 Z M 191.84 -15.25 L 191.84 0 L 199.16 0 L 199.16 -15.25 C 199.16 -22.94 199.47 -23.79 206.73 -23.79 C 213.38 -23.79 214.29 -22.94 214.29 -15.25 L 214.29 0 L 221.61 0 L 221.61 -15.25 C 221.61 -26.66 216.85 -31.11 206.73 -31.11 C 200.75 -31.11 197.76 -29.71 196.3 -26.54 C 193.86 -29.71 189.89 -31.11 184.28 -31.11 C 180.19 -31.11 177.94 -30.44 176.72 -29.04 L 176.72 -30.5 L 169.4 -30.5 L 169.4 0 L 176.72 0 L 176.72 -15.25 C 176.72 -22.94 177.02 -23.79 184.28 -23.79 C 190.93 -23.79 191.84 -22.94 191.84 -15.25 Z M 243.51 0.61 C 254.37 0.61 259.01 -4.09 259.01 -15.25 C 259.01 -26.66 254.25 -31.11 243.51 -31.11 C 238.94 -31.11 236.56 -30.32 235.34 -28.49 L 235.34 -30.5 L 228.02 -30.5 L 228.02 12.2 L 235.34 12.2 L 235.34 -2.01 C 236.56 -0.24 238.94 0.61 243.51 0.61 Z M 235.34 -15.25 C 235.34 -22.94 236.25 -23.79 243.51 -23.79 C 250.77 -23.79 251.69 -22.94 251.69 -15.25 C 251.69 -7.69 250.77 -6.71 243.51 -6.71 C 236.25 -6.71 235.34 -7.69 235.34 -15.25 Z M 272.73 0 L 272.73 -42.7 L 265.41 -42.7 L 265.41 0 Z M 286.46 -15.86 L 286.46 -30.5 L 279.14 -30.5 L 279.14 -15.86 C 279.14 -4.45 283.89 0 294.63 0 C 299.2 0 301.58 -0.79 302.8 -2.62 L 302.8 1.52 C 302.8 4.76 300.79 5.49 295.67 5.49 C 290.6 5.49 288.59 4.76 288.59 1.52 L 281.27 1.52 C 281.27 9.15 287.37 12.81 295.67 12.81 C 304.02 12.81 310.12 9.21 310.12 1.52 L 310.12 -30.5 L 302.8 -30.5 L 302.8 -15.86 C 302.8 -8.17 301.89 -7.32 294.63 -7.32 C 287.37 -7.32 286.46 -8.17 286.46 -15.86 Z" stroke-linecap="round" />
</g>
</g>
</g>
</svg>